<svg xmlns="http://www.w3.org/2000/svg" xmlns:xlink="http://www.w3.org/1999/xlink" id="Layer_1" data-name="Layer 1" viewBox="0 0 1069 204.78"><defs><style>.cls-1{fill:none;}.cls-2{fill:#1a1a1a;}.cls-2,.cls-4{stroke:#1a1a1a;stroke-miterlimit:10;}.cls-3{clip-path:url(#clip-path);}.cls-4{fill:#fff;}</style><clipPath id="clip-path"><rect class="cls-1" x="971.89" y="-14.26" width="97.11" height="219.03"></rect></clipPath></defs><path class="cls-2" d="M103.51,21.43,125,65.24a7.5,7.5,0,0,0,5.66,4.11l48.33,7a7.52,7.52,0,0,1,4.25,12.92l-35,34a7.62,7.62,0,0,0-2.16,6.66l8.27,48.14A7.51,7.51,0,0,1,143.5,186l-43.22-22.72a7.46,7.46,0,0,0-7,0L50.05,186a7.52,7.52,0,0,1-10.91-7.92l8.26-48.14a7.52,7.52,0,0,0-2.15-6.66l-35-34a7.51,7.51,0,0,1,4.17-12.82l48.37-7.11a7.5,7.5,0,0,0,5.66-4.11L90,21.43a7.52,7.52,0,0,1,13.51,0Z"></path><path class="cls-2" d="M333,21.43l21.53,43.81a7.49,7.49,0,0,0,5.66,4.11l48.33,7a7.52,7.52,0,0,1,4.17,12.92l-35,34.08a7.62,7.62,0,0,0-2.16,6.66l8.34,48A7.51,7.51,0,0,1,373,186l-43.22-22.72a7.5,7.5,0,0,0-7,0L279.42,186a7.52,7.52,0,0,1-10.91-7.92l8.26-48.14a7.59,7.59,0,0,0-2.15-6.66l-35-34a7.51,7.51,0,0,1,4.17-12.82l48.33-7a7.53,7.53,0,0,0,5.66-4.11l21.53-43.81a7.52,7.52,0,0,1,13.63-.1Z"></path><path class="cls-2" d="M547.78,21.43l21.53,43.81A7.5,7.5,0,0,0,575,69.35l48.33,7a7.52,7.52,0,0,1,4.25,12.92l-35,34.08a7.62,7.62,0,0,0-2.16,6.66l8.27,48.13a7.52,7.52,0,0,1-10.91,7.93l-43.22-22.73a7.55,7.55,0,0,0-7,0L494.32,186a7.52,7.52,0,0,1-10.91-7.92l8.26-48.14a7.59,7.59,0,0,0-2.15-6.66l-35-34a7.51,7.51,0,0,1,4.17-12.82l48.33-7a7.53,7.53,0,0,0,5.66-4.11l21.53-43.81a7.52,7.52,0,0,1,13.55-.1Z"></path><path class="cls-2" d="M762.68,21.43l21.53,43.81a7.5,7.5,0,0,0,5.66,4.11l48.33,7a7.52,7.52,0,0,1,4.25,12.92l-35,34a7.59,7.59,0,0,0-2.15,6.66l8.26,48.14A7.52,7.52,0,0,1,802.77,186l-43.22-22.72a7.5,7.5,0,0,0-7,0L709.22,186a7.51,7.51,0,0,1-10.9-7.92l8.26-48.14a7.62,7.62,0,0,0-2.16-6.66l-35-34a7.51,7.51,0,0,1,4.13-12.92l48.33-7a7.49,7.49,0,0,0,5.66-4.11l21.53-43.81a7.52,7.52,0,0,1,13.59,0Z"></path><path class="cls-2" d="M977.58,21.43l21.53,43.81a7.52,7.52,0,0,0,5.66,4.11l48.33,7a7.51,7.51,0,0,1,4.25,12.92l-35,34.08a7.59,7.59,0,0,0-2.15,6.66l8.26,48.13a7.52,7.52,0,0,1-10.91,7.93l-43.22-22.73a7.55,7.55,0,0,0-7,0L924.14,186a7.51,7.51,0,0,1-10.9-7.92l8.26-48.14a7.62,7.62,0,0,0-2.16-6.66l-35-34a7.52,7.52,0,0,1,4.17-12.82l48.33-7a7.51,7.51,0,0,0,5.66-4.11L964,21.53a7.51,7.51,0,0,1,13.54-.1Z"></path><g class="cls-3"><path class="cls-4" d="M977.58,21.43l21.53,43.81a7.52,7.52,0,0,0,5.66,4.11l48.33,7a7.51,7.51,0,0,1,4.25,12.92l-35,34.08a7.59,7.59,0,0,0-2.15,6.66l8.26,48.13a7.52,7.52,0,0,1-10.91,7.93l-43.22-22.73a7.55,7.55,0,0,0-7,0L924.14,186a7.51,7.51,0,0,1-10.9-7.92l8.26-48.14a7.62,7.62,0,0,0-2.16-6.66l-35-34a7.52,7.52,0,0,1,4.17-12.82l48.33-7a7.51,7.51,0,0,0,5.66-4.11L964,21.53a7.51,7.51,0,0,1,13.54-.1Z"></path></g></svg>